<svg xmlns="http://www.w3.org/2000/svg" viewBox="0 0 486 486">
	<path d="M14 158a24 24 0 0029 18l40-10c4-1 5 2 5 4v250c0 13 11 24 24 24h263c13 0 23-11 23-24V170c0-2 1-4 4-4h2l39 10a24 24 0 0029-18l14-53a23 23 0 00-18-29L344 46c-8-2-15-3-23-3h-30l-2 6a47 47 0 01-92 0l-2-6h-30l-23 3L18 76a23 23 0 00-17 29l13 53zm3-63c1-2 3-3 5-3l41-11 8 32 50-13-8-31 33-8c6-2 13-3 20-3h17a63 63 0 00120 0h18c6 0 13 1 19 3l125 31a8 8 0 015 9l-13 53c-1 5-6 7-10 6l-39-9-6-1c-11 0-19 9-19 20v250c0 5-4 8-8 8H112c-5 0-8-3-8-8V170c0-11-9-20-20-20l-5 1-40 9c-4 1-8-1-9-6l-14-53c-1-2 0-4 1-6z" />
	<path d="M180 285h27V152h-22l-1 5-5 10c-4 3-8 6-13 7l-18 2v17h32v92zM292 289c17 0 29-6 36-18 6-12 10-29 10-51s-4-39-10-51c-7-12-19-18-36-18s-29 6-36 18-10 29-10 51 3 39 10 51 19 18 36 18zm-16-105c3-7 8-11 16-11s13 4 15 11c3 8 4 20 4 36 0 15-1 27-4 35-2 8-7 12-15 12s-13-4-16-12c-2-8-3-20-3-35 0-16 1-28 3-36zM123 385h24v30h-24v-30z" />
</svg>
