<svg xmlns="http://www.w3.org/2000/svg" viewBox="0 0 405 405">
	<path d="M198 220c8-15 14-31 18-48l15 12v-1l-9-38-3-40-14 37-20 35 1 1 15-7-17 42A397 397 0 0161 354l1 1a361 361 0 00136-135zM119 341l-30 7v2c10-1 21-3 31-6l-1-3zM151 336l30-10-4-8c-9 5-19 9-28 12l2 6zM205 304l5 9c9-4 19-9 28-15l-7-10-26 16zM280 250l-12 10-12 10 9 11a426 426 0 0025-19l-10-12zM355 171l-29 27-34 21v1l18 1-8 8 11 11 9-11 7 18 1-1 10-38 15-37zM62 371c-1-2-3-4-5-3l-22 2c-3-9-4-18 0-22a4 4 0 10-6-5c-6 6-5 17-2 28l-14 2c-3 0-4 2-4 4a4 4 0 004 4l17-2 8 19a4 4 0 107-4l-7-16 20-3c2 0 4-2 4-4zM378 140c-2-9-4-18 0-22a4 4 0 00-6-5c-6 6-5 17-2 28l-14 2a4 4 0 000 8h1l16-2 8 19a4 4 0 107-3l-7-17 20-2c2-1 4-3 4-5-1-2-3-4-5-3l-22 2z" />
	<path d="M151 212c0-3-2-4-4-4l-22 3c-3-10-4-19-1-23a4 4 0 10-6-5c-5 7-4 18-1 29l-15 1c-2 1-4 3-3 5a4 4 0 004 3l16-2 9 20a4 4 0 107-4l-8-17 21-2c2 0 3-2 3-4zM257 34c0-2-2-3-4-3l-22 2c-3-9-4-18-1-22a4 4 0 00-6-5c-5 6-4 18-1 28l-15 2a4 4 0 101 8l16-2c3 9 7 16 9 19a4 4 0 005 2c2-1 3-4 2-5l-8-17 21-2c2-1 3-3 3-5zM6 295c-8 8-8 22 0 31 4 4 10 6 16 6 5 0 11-2 15-6a22 22 0 000-31c-8-8-22-8-31 0zm26 5c2 3 4 6 4 10a14 14 0 01-24 10c-6-5-5-14 0-20 3-2 6-4 10-4s7 2 10 4zM171 174c8-9 8-23 0-31s-23-8-31 0a22 22 0 000 31 22 22 0 0031 0zm-30-16c0-3 2-7 4-10 3-2 7-4 10-4 4 0 8 2 10 4 6 6 5 14 0 20-5 5-15 5-20 0-2-2-4-6-4-10zM275 210c9-9 9-23 0-31-8-8-22-8-30 0-9 9-9 23-1 31 4 4 10 6 16 6s11-2 15-6zm-25-25c3-3 6-4 10-4s7 1 10 4c5 5 5 14 0 19-6 6-15 6-20 0-5-5-5-14 0-19zM312 128a22 22 0 000-31c-8-8-22-8-31 1a22 22 0 000 30c4 4 10 7 15 7 6 0 12-3 16-7zm-29-15c0-4 1-7 4-10s6-4 10-4a14 14 0 0114 14 14 14 0 01-24 10c-3-3-4-6-4-10z" />
</svg>
